PathFileType	4	(X/Y/Z)	C:/Users/opensim2020/Desktop/walking_exp_matlab/subject02_walking12_straight_03.trc	
DataRate	CameraRate	NumFrames	NumMarkers	Units	OrigDataRate	OrigDataStartFrame	OrigNumFrames	
100.00	100.00	5	42	mm	100.00	1573	127	
Frame#	Time	LFHD			RFHD			LBHD			RBHD			C7			T10			CLAV			STRN			RBAK			LSHO			LUPA			LELB			LFRM			LWRA			LWRB			LFIN			RSHO			RUPA			RELB			RFRM			RWRA			RWRB			RFIN			LASI			RASI			LPSI			RPSI			LTHI			LKNE			LTIB			LANK			LHEE			LTOE			RTHI			RKNE			RTIB			RANK			RHEE			RTOE			*39			*40			*41			
		X1	Y1	Z1	X2	Y2	Z2	X3	Y3	Z3	X4	Y4	Z4	X5	Y5	Z5	X6	Y6	Z6	X7	Y7	Z7	X8	Y8	Z8	X9	Y9	Z9	X10	Y10	Z10	X11	Y11	Z11	X12	Y12	Z12	X13	Y13	Z13	X14	Y14	Z14	X15	Y15	Z15	X16	Y16	Z16	X17	Y17	Z17	X18	Y18	Z18	X19	Y19	Z19	X20	Y20	Z20	X21	Y21	Z21	X22	Y22	Z22	X23	Y23	Z23	X24	Y24	Z24	X25	Y25	Z25	X26	Y26	Z26	X27	Y27	Z27	X28	Y28	Z28	X29	Y29	Z29	X30	Y30	Z30	X31	Y31	Z31	X32	Y32	Z32	X33	Y33	Z33	X34	Y34	Z34	X35	Y35	Z35	X36	Y36	Z36	X37	Y37	Z37	X38	Y38	Z38	X39	Y39	Z39	X40	Y40	Z40	X41	Y41	Z41	X42	Y42	Z42	

48	0.470	-1057.24377	17.18879	1726.05359	-920.26544	-22.27072	1696.54163	-1107.49109	-105.34026	1653.67676	-976.90161	-156.32939	1622.78003	-1049.04968	-178.05692	1507.89575	-1051.90381	-235.09435	1233.43005	-1047.35352	-39.16623	1438.23218	-1045.28552	9.68796	1265.08716	-1000.29700	-246.99916	1331.88989	-1216.14648	-89.59079	1494.82227	-1332.13904	-39.42945	1325.61743	-1376.38220	24.19080	1205.13770	-1396.80505	121.27018	1113.78674	-1367.70508	244.88222	1060.01123	-1402.44763	211.28165	1030.73572	-1412.85876	270.36926	1004.86530	-857.35999	-124.04264	1462.21887	-786.06543	-192.03392	1279.86865	-765.35901	-203.83385	1136.33789	-736.41608	-205.80132	1018.82562	-740.82837	-184.57614	883.42889	-718.34265	-236.21629	892.98468	-707.28912	-216.96281	823.43884	-1189.81604	-16.50820	969.09515	-932.63849	-5.95529	958.71851	-1098.09290	-222.38872	1016.21490	-984.77716	-224.00798	1012.06848	-1236.90491	-134.75598	666.04529	-1208.49622	-207.84543	473.67593	-1213.63672	-301.56625	302.05920	-1182.21167	-340.50018	79.12431	-1133.24170	-382.10733	54.64531	-1191.30908	-187.01596	32.16986	-853.73590	-14.92022	661.17377	-891.37750	62.18548	469.84683	-878.80969	97.99200	287.57516	-904.43610	165.00146	103.45554	-964.11206	163.56856	40.89692	-873.63287	323.10419	105.25951	-993.77374	-106.36045	1785.04517	-3357.19824	2845.97485	1034.41052			 
49	0.480	-1055.06396	29.81583	1724.09827	-918.30322	-10.40981	1693.80811	-1105.68274	-92.68430	1651.84082	-974.97906	-144.06776	1620.54944	-1047.35339	-165.85818	1505.93652	-1050.06873	-222.76642	1231.47388	-1045.72864	-26.89477	1436.26196	-1044.00037	21.88704	1263.16113	-999.04224	-233.60475	1329.24048	-1214.26831	-77.36847	1493.20776	-1330.66772	-25.86456	1325.22876	-1375.03149	38.83955	1205.36804	-1394.93787	138.18260	1116.20081	-1364.76880	262.89758	1065.72339	-1399.57898	230.19102	1035.30713	-1409.61353	290.11548	1011.36780	-855.76685	-111.75217	1459.84900	-784.83295	-180.86627	1278.27356	-764.16876	-194.54163	1134.96033	-735.28979	-198.34554	1017.42023	-739.17017	-177.76039	882.03198	-717.19250	-229.64523	891.99103	-705.74329	-211.37100	822.28888	-1188.92517	-4.92924	967.47101	-932.10675	7.37760	956.72870	-1095.83264	-210.32321	1014.12964	-982.33075	-210.83220	1010.00391	-1236.50745	-126.61779	665.28009	-1207.89160	-200.99251	473.56430	-1212.79431	-297.51779	303.53003	-1182.08545	-339.69678	81.10476	-1133.04333	-381.46799	57.02706	-1191.55542	-186.83305	32.19633	-852.73413	-6.40823	657.90808	-891.33746	75.35062	467.87564	-877.90472	116.99065	287.61108	-902.26904	190.02681	105.45834	-961.34015	189.96777	42.19962	-874.05865	349.17737	112.20516	-991.53748	-93.91598	1783.12122	-3360.34839	2845.15381	1034.25208			 
50	0.490	-1052.59692	42.30826	1722.17456	-916.03589	2.18938	1691.88562	-1104.24475	-80.18641	1650.24390	-973.37848	-131.73352	1618.84155	-1045.63782	-153.50858	1504.00781	-1048.09473	-210.30699	1229.54773	-1043.95801	-14.58138	1434.41370	-1042.61841	34.24527	1261.36780	-997.43903	-221.72794	1327.36938	-1212.48767	-65.22827	1491.73120	-1328.97278	-12.52966	1324.71313	-1373.64539	53.16570	1205.44617	-1392.38184	154.55579	1118.25439	-1361.62000	280.18408	1070.99280	-1396.35352	248.39230	1039.51843	-1406.57629	308.89386	1017.27509	-853.91815	-99.39812	1457.90320	-783.51978	-169.85239	1276.84070	-763.07159	-185.23289	1133.53003	-733.94537	-189.85257	1016.28668	-737.52448	-169.96954	880.63440	-716.11157	-222.52345	890.89661	-704.25488	-205.02895	821.19000	-1188.04541	6.82967	965.82111	-931.76233	20.80446	954.84869	-1093.30396	-198.13368	1012.09601	-979.72955	-197.60341	1008.08472	-1236.35681	-118.21601	664.60889	-1207.39771	-193.38118	473.42886	-1212.15662	-292.90875	305.10284	-1182.14807	-338.74933	83.17539	-1132.92944	-380.72507	59.42949	-1191.66504	-186.80859	31.82903	-851.76697	3.41267	655.23053	-890.41870	90.39664	467.24356	-876.75201	134.69203	287.41968	-901.40845	211.33730	106.29005	-959.76508	211.22507	42.51796	-875.56165	370.84296	116.37030	-989.38336	-81.45111	1781.16248	-3357.35327	2845.88550	1034.39355			 
51	0.500	-1050.09302	54.87571	1720.34900	-913.48926	14.22974	1690.08386	-1101.50098	-67.32912	1648.30054	-971.57281	-119.74326	1617.10693	-1043.54199	-141.24132	1502.21753	-1046.06506	-197.69389	1227.59851	-1042.05884	-2.23456	1432.64465	-1041.08545	45.91013	1259.56995	-995.43811	-209.06187	1325.36035	-1210.69873	-53.17220	1490.18433	-1327.10413	0.37739	1324.06897	-1371.73730	67.00202	1205.32373	-1390.12720	170.26299	1120.04053	-1358.55908	296.75656	1075.96570	-1392.93005	265.99173	1043.48230	-1402.63892	326.91837	1022.55133	-852.07837	-87.19085	1455.62708	-782.20953	-158.56479	1274.97095	-761.71539	-174.92819	1131.91663	-732.59564	-181.26390	1014.85938	-735.54419	-162.17462	879.21027	-714.99878	-214.88165	889.74030	-702.62714	-197.85063	820.02985	-1187.18347	18.64174	964.15613	-931.34503	34.26264	953.02759	-1090.83752	-185.72972	1010.20856	-977.15594	-184.03123	1006.27686	-1235.46094	-109.07683	663.94049	-1207.00452	-184.93527	473.11832	-1211.84998	-287.63959	306.75464	-1182.53601	-337.64484	85.47341	-1133.45215	-380.13528	62.88361	-1191.88525	-186.73734	31.73210	-850.58051	15.63092	653.65521	-889.39288	106.93274	467.20883	-875.29022	151.55629	287.23828	-900.81519	227.95399	105.98635	-958.60663	227.80373	41.88081	-878.04645	388.08749	116.65565	-987.14215	-69.02555	1779.33984	-3360.30518	2845.24634	1034.27783			 
52	0.510	-1047.65955	67.56772	1718.78540	-910.85046	26.65944	1688.21826	-1099.20984	-54.60621	1646.67603	-969.47253	-107.71443	1615.20508	-1041.32544	-128.88904	1500.49573	-1043.83093	-185.08359	1225.83167	-1039.94019	10.19629	1431.00122	-1039.32874	58.57956	1258.06396	-993.40820	-196.49828	1323.67590	-1208.25708	-41.04866	1488.57056	-1324.99951	12.96565	1323.20447	-1370.03491	80.57697	1204.89404	-1387.11841	185.46329	1121.47852	-1354.77148	312.52243	1080.17432	-1389.40002	282.75378	1047.06763	-1398.88062	344.13370	1027.39746	-849.86108	-74.55041	1453.77039	-780.63965	-147.31093	1273.40930	-760.32385	-164.57425	1130.40796	-731.22272	-171.61855	1013.44873	-733.91034	-154.11234	877.68030	-713.89581	-206.61433	888.56622	-701.38080	-189.93884	818.67352	-1186.26770	30.55647	962.49078	-930.84540	47.91067	951.34106	-1088.25732	-173.11519	1008.51050	-974.32800	-170.93332	1004.76465	-1234.91797	-99.31596	663.25800	-1206.65845	-175.77565	472.74850	-1211.77930	-281.66049	308.47354	-1183.19373	-336.27600	88.17720	-1134.31628	-379.31796	66.71561	-1192.22388	-186.79500	31.60755	-849.29376	32.21916	653.47961	-888.20575	124.72889	467.50677	-874.16455	167.50169	286.80191	-900.63422	240.91541	104.78992	-958.15802	239.03880	40.25743	-880.66534	401.32642	113.56482	-985.04803	-56.65637	1777.64294	-3357.29614	2845.83130	1034.33411			 
